<svg xmlns="http://www.w3.org/2000/svg" width="50" height="50" viewBox="0 0 50.000001 50.000002"><path d="M7.077 1.957a5.11 5.11 0 0 0-5.12 5.12v35.846a5.11 5.11 0 0 0 5.12 5.12h35.845a5.11 5.11 0 0 0 5.121-5.12V7.078a5.11 5.11 0 0 0-5.12-5.121H7.076zm5.377 6.145a4.353 4.353 0 1 1 0 8.705 4.353 4.353 0 0 1 0-8.705zm21.251 10.241c6.657 0 7.17 6.657 7.17 6.657v16.386h-6.658V29.61s0-5.633-3.584-5.633c-3.585 0-3.585 5.633-3.585 5.633v11.777h-6.657v-22.53h6.145v3.584s.512-4.097 7.17-4.097zm-24.58.512h6.658v22.531H9.126v-22.53z"/></svg>
